<svg xmlns="http://www.w3.org/2000/svg" height="800" width="800" viewBox="0 0 473.98 473.98" fill="#000000" xmlns:v="https://vecta.io/nano"><style><![CDATA[.B{fill:#e84849}.C{fill:#f6a2a3}.D{fill:#f4e028}.E{fill:#e5ce27}]]></style><path d="M.004 236.99C.004 106.095 106.102 0 236.994 0c130.884 0 236.982 106.095 236.982 236.99 0 130.884-106.098 236.99-236.982 236.99S.004 367.87.004 236.99z" fill="#fad7d5"/><g fill="#2f8442"><path d="M150.42 195.033s54.402 163.572 75.135 242.947l6.148-2.391-75.071-239.826c-8.345-31.184-6.212-.73-6.212-.73zm169.046.561s-63.195 163.565-70.035 245.315l6.503 1.182s23.633-128.235 69.144-243.744c11.833-30.026-5.612-2.753-5.612-2.753z"/><path d="M267.957 188.908s-4.905 163.337.857 236.369l5.437.861s-5.575-207.164-.943-235.617-5.351-1.613-5.351-1.613zm-57.646-5.16s-1.149 170.435 4.846 246.52l5.759-.221s-9.86-214.977-5.029-244.612c4.83-29.642-5.576-1.687-5.576-1.687z"/><path d="M184.878 137.99s18.877 122.798 33.261 176.601l6.971-1.25s-35.547-152.976-36.007-174.884-4.225-.467-4.225-.467zm51.734-23.181s-12.584 231.115 1.594 311.912l6.496-1.77-1.949-308.911c2.139-32.202-6.141-1.231-6.141-1.231z"/></g><g opacity=".8"><path d="M291.979 408.401H186.794c-8.397 0 12.688-55.229 12.688-55.229l-71.82-137.642c0-15.97 12.943-28.905 28.913-28.905h165.028c15.97 0 28.913 12.935 28.913 28.905l-71.82 136.444c0 .001 20.43 56.427 13.283 56.427z" fill="#e0dad2"/></g><g opacity=".5"><path d="M242.329 408.401h-55.536c-7.147 0 12.688-55.229 12.688-55.229l-71.82-137.642c0-15.97 12.943-28.905 28.913-28.905l132.747 66.065-46.992 155.711z" fill="#e0dad2"/></g><path d="M166.596 133.372c.92 11.117-4.284 22.787-11.824 23.401-7.543.621-14.574-10.043-15.487-21.156s4.64-18.469 12.183-19.091c7.539-.613 14.211 5.729 15.128 16.846z" class="C"/><path d="M163.501 137.589c.674 8.15-3.181 16.194-8.703 16.647-5.534.453-10.649-6.862-11.311-15.005-.674-8.15 3.36-14.047 8.887-14.492 5.529-.459 10.465 4.701 11.127 12.85z" class="B"/><path d="M185.26 151.123c-7.214 8.505-19.132 13.081-24.905 8.187-5.781-4.898-3.207-17.407 4.004-25.916 7.222-8.498 16.34-9.777 22.114-4.883s6.001 14.107-1.213 22.612z" class="C"/><path d="M180.092 151.913c-5.291 6.241-13.702 9.209-17.934 5.62-4.224-3.588-2.675-12.382 2.608-18.608 5.291-6.241 12.314-7.558 16.546-3.97 4.225 3.592 4.071 10.731-1.22 16.958z" class="B"/><path d="M152.452 193.623c-5.19-9.875-4.954-22.642 1.74-26.155 6.709-3.521 17.343 3.551 22.518 13.426 5.19 9.882 2.945 18.81-3.757 22.327-6.694 3.52-15.326.272-20.501-9.598z" class="C"/><path d="M153.645 188.541c-3.794-7.252-3.39-16.157 1.519-18.739 4.913-2.574 12.483 2.163 16.277 9.399 3.802 7.237 2.391 14.245-2.529 16.816-4.913 2.582-11.469-.247-15.267-7.476z" class="B"/><path d="M123.453 156.145c11.102-1.051 22.825 4.004 23.54 11.54.707 7.528-9.867 14.69-20.969 15.734-11.109 1.051-18.526-4.423-19.237-11.94-.704-7.536 5.564-14.29 16.666-15.334z" class="C"/><path d="M127.7 159.187c8.142-.767 16.239 2.982 16.759 8.505s-6.731 10.72-14.874 11.487-14.084-3.188-14.6-8.718c-.52-5.523 4.58-10.515 12.715-11.274z" class="B"/><path d="M139.393 133.81c8.58 7.109 13.31 18.971 8.479 24.804-4.823 5.833-17.366 3.413-25.953-3.689-8.595-7.117-9.976-16.224-5.152-22.058s14.031-6.159 22.626.943z" class="C"/><path d="M140.25 138.97c6.301 5.205 9.369 13.586 5.833 17.852-3.536 4.284-12.344 2.821-18.642-2.384-6.301-5.22-7.704-12.221-4.165-16.486 3.533-4.273 10.672-4.198 16.974 1.018z" class="B"/><path d="M182.247 186.307c-11.151 0-22.365-6.125-22.372-13.687 0-7.57 11.203-13.71 22.35-13.717 11.151-.015 18.028 6.125 18.035 13.68.012 7.569-6.858 13.709-18.013 13.724z" class="C"/><path d="M178.3 182.88c-8.18.007-15.895-4.486-15.895-10.035-.007-5.545 7.704-10.05 15.873-10.05 8.18-.015 13.725 4.479 13.732 10.035.004 5.545-5.538 10.042-13.71 10.05z" class="B"/><path d="M127.307 186.102c3.326-10.642 12.513-19.513 19.73-17.261 7.229 2.26 9.747 14.769 6.432 25.418-3.326 10.649-11.225 15.382-18.447 13.134-7.229-2.253-11.034-10.65-7.715-21.291z" class="C"/><path d="M131.748 183.355c2.432-7.805 9.018-13.826 14.316-12.168 5.298 1.65 7.293 10.342 4.868 18.155-2.432 7.798-8.382 11.753-13.68 10.099-5.298-1.646-7.928-8.284-5.504-16.086z" class="B"/><ellipse transform="matrix(.0818 .9966 -.9966 .0818 305.977 1.2558)" cx="152.307" cy="166.688" rx="15.943" ry="17.993" class="D"/><ellipse transform="matrix(.0816 .9967 -.9967 .0816 305.9831 1.2869)" cx="152.293" cy="166.672" rx="10.511" ry="11.862" class="E"/><path d="M355.234 142.828c-2.836 10.788-11.626 20.06-18.945 18.133s-10.398-14.316-7.562-25.104 10.518-15.865 17.841-13.953c7.312 1.93 11.491 10.14 8.666 20.924z" class="C"/><path d="M350.905 145.776c-2.077 7.906-8.382 14.215-13.747 12.804-5.366-1.418-7.753-10.013-5.68-17.912 2.084-7.914 7.843-12.123 13.212-10.713 5.362 1.408 8.299 7.911 6.215 15.821z" class="B"/><path d="M366.927 165.776c-9.631 5.613-22.398 5.972-26.215-.569-3.817-6.526 2.769-17.482 12.4-23.102 9.631-5.613 18.657-3.787 22.481 2.746 3.809 6.545.958 15.305-8.666 20.925z" class="C"/><path d="M361.79 164.803c-7.061 4.123-15.981 4.123-18.784-.674-2.799-4.778 1.602-12.561 8.655-16.677 7.061-4.123 14.125-3.027 16.917 1.762 2.791 4.798.269 11.47-6.788 15.589z" class="B"/><path d="M321.842 194.936c-1.601-11.027 2.866-22.997 10.35-24.082 7.491-1.089 15.173 9.115 16.771 20.157 1.602 11.027-3.487 18.709-10.978 19.798-7.484 1.096-14.537-4.831-16.143-15.873z" class="C"/><path d="M324.671 190.543c-1.175-8.09 2.17-16.37 7.659-17.16 5.489-.797 11.042 6.181 12.221 14.271s-2.485 14.23-7.974 15.02c-5.492.804-10.731-4.045-11.906-12.131z" class="B"/><path d="M306.969 149.956c10.818 2.698 20.191 11.364 18.357 18.709-1.841 7.338-14.193 10.574-25.01 7.873-10.825-2.713-15.996-10.335-14.17-17.672 1.844-7.339 10.001-11.623 20.823-8.91z" class="C"/><path d="M309.958 154.229c7.936 1.979 14.324 8.213 12.98 13.594-1.351 5.384-9.923 7.876-17.852 5.89-7.929-1.979-12.221-7.689-10.866-13.074 1.34-5.385 7.81-8.397 15.738-6.41z" class="B"/><path d="M329.427 134.192c5.729 9.56 6.234 22.32-.254 26.215s-17.512-2.559-23.24-12.116c-5.751-9.568-4.019-18.615 2.477-22.511 6.48-3.902 15.281-1.149 21.017 8.412z" class="C"/><path d="M328.514 139.344c4.21 7.001 4.318 15.925-.438 18.776-4.763 2.859-12.576-1.441-16.786-8.449-4.21-7.016-3.199-14.084 1.557-16.932 4.756-2.858 11.465-.411 15.667 6.605z" class="B"/><path d="M352.383 197.948c-10.526-3.704-19.053-13.212-16.539-20.348s15.121-9.209 25.631-5.497c10.526 3.689 14.967 11.76 12.46 18.9-2.514 7.143-11.038 10.642-21.552 6.945z" class="C"/><path d="M349.801 193.409c-7.719-2.713-13.497-9.515-11.656-14.746s10.604-6.922 18.316-4.202c7.712 2.713 11.454 8.793 9.616 14.032-1.848 5.223-8.572 7.622-16.276 4.916z" class="B"/><path d="M300.634 179.479c6.679-8.924 18.294-14.238 24.352-9.714 6.065 4.531 4.277 17.175-2.391 26.114-6.672 8.932-15.704 10.765-21.762 6.249-6.07-4.524-6.871-13.71-.199-22.649z" class="C"/><path d="M305.741 178.375c4.891-6.556 13.111-10.043 17.545-6.724 4.445 3.326 3.442 12.183-1.448 18.746-4.898 6.541-11.809 8.296-16.262 4.969-4.444-3.308-4.725-10.443.165-16.991z" class="B"/><ellipse transform="matrix(-.2544 .9671 -.9671 -.2544 578.7108 -107.1415)" cx="330.657" cy="169.512" rx="15.948" ry="17.998" class="D"/><ellipse transform="matrix(-.2545 .9671 -.9671 -.2545 578.7274 -107.1796)" cx="330.675" cy="169.477" rx="10.511" ry="11.862" class="E"/><path d="M289.143 140.747c-.943 9.908-7.353 19.353-14.077 18.709-6.732-.636-11.233-11.124-10.29-21.025.943-9.923 6.986-15.51 13.71-14.881 6.728.651 11.6 7.285 10.657 17.197z" class="C"/><path d="M285.76 143.962c-.696 7.27-5.343 13.74-10.275 13.272-4.932-.475-8.273-7.712-7.585-14.975.703-7.263 5.167-11.817 10.099-11.341s8.457 5.781 7.761 13.044z" class="B"/><path d="M302.759 159.28c-7.682 6.342-18.885 8.494-23.18 3.289-4.311-5.212-.079-15.817 7.592-22.159 7.682-6.335 15.903-6.028 20.206-.812s3.057 13.34-4.618 19.682z" class="C"/><path d="M298.089 159.164c-5.628 4.647-13.489 5.949-16.647 2.118-3.151-3.817-.4-11.3 5.22-15.947 5.635-4.647 12.015-4.707 15.173-.883 3.147 3.816 1.89 10.069-3.746 14.712z" class="B"/><path d="M267.235 191.479c-2.997-9.478-.797-20.681 5.65-22.713 6.447-2.039 14.69 5.852 17.687 15.349 3.005 9.493-.374 16.991-6.818 19.031-6.435 2.042-13.507-2.167-16.519-11.667z" class="C"/><path d="M269.091 187.213c-2.2-6.971-.445-14.746 4.277-16.239s10.627 3.858 12.827 10.825c2.208 6.956-.131 12.898-4.861 14.383-4.722 1.497-10.043-2.021-12.243-8.969z" class="B"/><path d="M247.635 153.982c9.923.827 19.439 7.102 18.885 13.848-.561 6.724-10.986 11.364-20.909 10.537s-15.588-6.795-15.035-13.527 7.132-11.685 17.059-10.858z" class="C"/><path d="M250.894 157.32c7.278.606 13.803 5.175 13.396 10.107-.415 4.939-7.607 8.374-14.889 7.768-7.27-.599-11.876-5.014-11.461-9.953.412-4.948 5.677-8.528 12.954-7.922z" class="B"/><path d="M265.158 136.852c6.425 7.6 8.718 18.776 3.558 23.139-5.16 4.378-15.809.277-22.237-7.315-6.44-7.615-6.219-15.828-1.059-20.198 5.153-4.374 13.302-3.222 19.738 4.374z" class="C"/><path d="M265.102 141.529c4.715 5.56 6.103 13.411 2.324 16.606-3.794 3.207-11.3.546-16.019-5.025s-4.853-11.94-1.066-15.15c3.775-3.2 10.039-2.006 14.761 3.569z" class="B"/><path d="M294.583 189.735c-9.8-1.747-18.694-8.894-17.512-15.543 1.19-6.649 12-10.297 21.8-8.543 9.807 1.732 14.889 8.206 13.702 14.859-1.181 6.652-8.182 10.971-17.99 9.227z" class="C"/><path d="M291.657 186.109c-7.192-1.28-13.272-6.447-12.4-11.319.861-4.876 8.352-7.63 15.536-6.342 7.184 1.28 11.356 6.103 10.496 10.978-.876 4.868-6.455 7.955-13.632 6.683z" class="B"/><path d="M246.311 180.919c4.602-8.827 14.069-15.18 20.06-12.075 6.002 3.128 6.249 14.522 1.658 23.356s-12.284 11.76-18.279 8.647c-5.988-3.105-8.027-11.093-3.439-19.928z" class="C"/><path d="M250.651 179.209c3.368-6.473 10.107-10.735 14.499-8.449s4.786 10.238 1.426 16.722c-3.368 6.473-9.209 9.018-13.616 6.731-4.397-2.282-5.669-8.519-2.309-15.004z" class="B"/><ellipse transform="matrix(-.0948 .9955 -.9955 -.0948 464.0632 -86.4209)" cx="271.323" cy="167.775" rx="14.245" ry="16.071" class="D"/><ellipse transform="matrix(-.0949 .9955 -.9955 -.0949 464.0867 -86.4432)" cx="271.341" cy="167.753" rx="9.385" ry="10.593" class="E"/><path d="M239.362 146.719c-.98 10.327-7.659 20.164-14.66 19.491-7.016-.666-11.708-11.585-10.72-21.908.98-10.335 7.278-16.15 14.286-15.502 7.001.677 12.078 7.592 11.094 17.919z" class="C"/><path d="M235.837 150.064c-.722 7.57-5.568 14.309-10.698 13.826-5.145-.498-8.625-8.03-7.906-15.596.722-7.577 5.381-12.314 10.518-11.817 5.134.491 8.812 6.018 8.086 13.587z" class="B"/><path d="M253.547 166.027c-8.004 6.601-19.667 8.842-24.153 3.427-4.486-5.429-.079-16.486 7.914-23.087 8.004-6.608 16.569-6.279 21.055-.849s3.184 13.901-4.816 20.509z" class="C"/><path d="M248.687 165.9c-5.867 4.846-14.054 6.196-17.343 2.215s-.423-11.772 5.437-16.617c5.867-4.838 12.513-4.905 15.794-.92 3.288 3.973 1.971 10.484-3.888 15.322z" class="B"/><path d="M216.537 199.572c-3.128-9.882-.834-21.545 5.882-23.656 6.716-2.125 15.296 6.088 18.425 15.981 3.136 9.89-.389 17.699-7.094 19.828s-14.077-2.252-17.213-12.153z" class="C"/><path d="M218.468 195.119c-2.286-7.255-.46-15.36 4.456-16.913s11.072 4.019 13.366 11.278c2.294 7.252-.146 13.433-5.066 14.975-4.921 1.571-10.462-2.096-12.756-9.34z" class="B"/><path d="M196.118 160.508c10.342.857 20.251 7.398 19.667 14.425-.584 7.001-11.439 11.832-21.777 10.978-10.342-.861-16.239-7.083-15.663-14.099.584-7.001 7.431-12.165 17.773-11.304z" class="C"/><path d="M199.508 163.988c7.585.629 14.383 5.392 13.957 10.529-.43 5.145-7.921 8.726-15.51 8.09-7.577-.629-12.374-5.224-11.94-10.376s5.916-8.88 13.493-8.243z" class="B"/><path d="M214.374 142.663c6.694 7.914 9.078 19.558 3.704 24.101-5.373 4.554-16.464.284-23.158-7.622-6.717-7.929-6.481-16.494-1.111-21.048s13.856-3.348 20.565 4.569z" class="C"/><path d="M214.315 147.527c4.913 5.796 6.357 13.972 2.413 17.306-3.94 3.341-11.768.561-16.685-5.231-4.917-5.811-5.051-12.445-1.111-15.787s10.458-2.095 15.383 3.712z" class="B"/><path d="M245.023 197.75c-10.211-1.819-19.469-9.268-18.241-16.194 1.242-6.93 12.505-10.728 22.713-8.902 10.215 1.811 15.51 8.557 14.271 15.487-1.223 6.926-8.524 11.431-18.743 9.609z" class="C"/><path d="M241.985 193.971c-7.499-1.328-13.826-6.709-12.92-11.787.898-5.085 8.696-7.951 16.179-6.615 7.491 1.328 11.832 6.357 10.941 11.439-.913 5.08-6.724 8.287-14.2 6.963z" class="B"/><path d="M194.745 188.564c4.786-9.194 14.653-15.809 20.902-12.569 6.241 3.252 6.503 15.121 1.725 24.337-4.786 9.201-12.804 12.247-19.046 9.003-6.249-3.237-8.367-11.555-3.581-20.771z" class="C"/><path d="M199.269 186.783c3.502-6.746 10.526-11.18 15.098-8.801 4.584 2.384 4.984 10.672 1.482 17.422-3.51 6.746-9.594 9.392-14.185 7.016-4.573-2.377-5.905-8.887-2.395-15.637z" class="B"/><ellipse transform="matrix(-.0949 .9955 -.9955 -.0949 415.86 -28.3641)" cx="220.824" cy="174.869" rx="14.84" ry="16.741" class="D"/><ellipse transform="matrix(-.095 .9955 -.9955 -.095 415.8432 -28.3441)" cx="220.806" cy="174.852" rx="9.774" ry="11.035" class="E"/><path d="M197.765 101.515c.659 7.543-2.829 15.495-7.944 15.94-5.123.445-9.931-6.769-10.597-14.301-.666-7.551 3.083-12.561 8.198-13.018 5.123-.445 9.677 3.846 10.343 11.379z" class="C"/><path d="M195.68 104.396c.483 5.527-2.107 10.997-5.852 11.334-3.757.322-7.252-4.61-7.738-10.144s2.23-9.553 5.987-9.875c3.746-.325 7.113 3.151 7.603 8.685z" class="B"/><path d="M210.502 113.503c-4.868 5.796-12.95 8.954-16.883 5.658-3.94-3.304-2.245-11.817 2.623-17.62 4.868-5.796 11.049-6.694 14.99-3.39s4.13 9.549-.73 15.352z" class="C"/><path d="M206.992 114.065c-3.566 4.247-9.268 6.301-12.153 3.873-2.885-2.413-1.863-8.389 1.695-12.644 3.573-4.254 8.34-5.175 11.218-2.754 2.888 2.417 2.81 7.27-.76 11.525z" class="B"/><path d="M188.38 142.48c-3.551-6.679-3.442-15.356 1.089-17.759 4.539-2.417 11.787 2.339 15.341 9.025s2.069 12.759-2.462 15.173c-4.542 2.418-10.402.247-13.968-6.439z" class="C"/><path d="M189.177 139.022c-2.601-4.898-2.369-10.956.958-12.722s8.486 1.418 11.087 6.32c2.608 4.898 1.68 9.661-1.65 11.424-3.33 1.773-7.787-.127-10.395-5.022z" class="B"/><path d="M168.56 117.148c7.536-.76 15.51 2.623 16.019 7.745.505 5.108-6.642 10.013-14.17 10.758-7.536.76-12.599-2.93-13.111-8.03-.513-5.107 3.719-9.721 11.262-10.473z" class="C"/><path d="M171.445 119.202c5.527-.561 11.035 1.957 11.416 5.699.374 3.749-4.531 7.308-10.058 7.865-5.527.546-9.575-2.11-9.946-5.867-.37-3.749 3.073-7.154 8.588-7.697z" class="B"/><path d="M179.288 101.919c5.86 4.801 9.108 12.834 5.852 16.808-3.252 3.981-11.779 2.391-17.635-2.406-5.867-4.793-6.833-10.978-3.581-14.952 3.255-3.981 9.512-4.236 15.364.55z" class="C"/><path d="M179.894 105.417c4.288 3.514 6.41 9.186 4.019 12.101-2.391 2.922-8.367 1.964-12.666-1.542-4.296-3.521-5.276-8.266-2.885-11.18s7.229-2.892 11.532.621z" class="B"/><path d="M208.586 137.398c-7.57.045-15.203-4.071-15.237-9.209s7.551-9.354 15.121-9.399c7.57-.052 12.262 4.086 12.292 9.224.037 5.141-4.603 9.336-12.176 9.384z" class="C"/><path d="M205.896 135.082c-5.553.045-10.81-2.982-10.832-6.746s5.19-6.855 10.743-6.885c5.545-.037 9.325 2.99 9.354 6.761.033 3.757-3.716 6.84-9.265 6.87z" class="B"/><path d="M171.277 137.466c2.223-7.229 8.427-13.295 13.336-11.787 4.917 1.504 6.672 9.991 4.464 17.231-2.215 7.244-7.562 10.488-12.475 8.988-4.906-1.504-7.529-7.192-5.325-14.432z" class="C"/><path d="M174.296 135.587c1.616-5.306 6.065-9.422 9.669-8.318s4.992 7.001 3.368 12.307-5.635 8.019-9.246 6.907c-3.6-1.088-5.418-5.59-3.791-10.896z" class="B"/><ellipse transform="matrix(.0873 .9962 -.9962 .0873 295.4544 -74.1117)" cx="188.172" cy="124.183" rx="10.829" ry="12.217" class="D"/><ellipse transform="matrix(.0876 .9962 -.9962 .0876 295.3774 -74.1498)" cx="188.167" cy="124.171" rx="7.136" ry="8.053" class="E"/><path d="M257.948 67.884c0 11.151-6.133 22.357-13.695 22.357-7.57 0-13.71-11.203-13.71-22.357s6.14-18.028 13.71-18.028c7.562 0 13.695 6.877 13.695 18.028z" class="C"/><path d="M254.52 71.831c0 8.172-4.494 15.88-10.043 15.88s-10.043-7.712-10.043-15.88c0-8.18 4.494-13.717 10.043-13.717s10.043 5.538 10.043 13.717z" class="B"/><path d="M275.092 87.105c-7.876 7.876-20.142 11.465-25.493 6.11-5.351-5.343-1.77-17.605 6.118-25.493s17.085-8.412 22.436-3.053c5.351 5.347 4.823 14.541-3.061 22.436z" class="C"/><path d="M269.88 87.464c-5.781 5.789-14.406 8.06-18.335 4.135-3.918-3.925-1.643-12.554 4.131-18.335 5.781-5.781 12.883-6.518 16.808-2.593 3.922 3.914 3.177 11.02-2.604 16.793z" class="B"/><path d="M238.917 126.772c-4.355-10.267-3.083-22.978 3.88-25.931 6.971-2.96 16.991 4.962 21.347 15.222 4.355 10.267 1.388 18.993-5.575 21.946-6.967 2.963-15.297-.974-19.652-11.237z" class="C"/><path d="M240.53 121.803c-3.195-7.528-2.069-16.378 3.042-18.548 5.108-2.163 12.262 3.173 15.457 10.698 3.188 7.521 1.212 14.391-3.895 16.554-5.112 2.173-11.409-1.183-14.604-8.704z" class="B"/><path d="M213.08 87.045c11.151-.138 22.428 5.86 22.518 13.426s-11.027 13.841-22.181 13.972c-11.151.138-18.103-5.927-18.189-13.485-.098-7.559 6.709-13.774 17.852-13.913z" class="C"/><path d="M217.072 90.424c8.172-.101 15.94 4.303 16.004 9.852s-7.585 10.137-15.764 10.23c-8.172.101-13.77-4.326-13.833-9.875-.075-5.552 5.421-10.113 13.593-10.207z" class="B"/><path d="M230.797 66.095c7.974 7.79 11.716 20.004 6.425 25.41-5.283 5.422-17.583 1.979-25.564-5.804-7.981-7.79-8.617-16.984-3.334-22.398s14.492-4.991 22.473 2.792z" class="C"/><path d="M231.227 71.303c5.852 5.699 8.228 14.301 4.355 18.271-3.88 3.978-12.535 1.804-18.387-3.903s-6.679-12.804-2.799-16.771c3.874-3.969 10.979-3.31 16.831 2.403z" class="B"/><path d="M269.214 121.915c-11.117-.906-21.785-7.929-21.171-15.472.621-7.543 12.277-12.745 23.394-11.839 11.117.898 17.467 7.57 16.853 15.113-.606 7.539-7.959 13.096-19.076 12.198z" class="C"/><path d="M265.562 118.181c-8.15-.666-15.472-5.766-15.02-11.3.445-5.534 8.498-9.392 16.647-8.726 8.142.659 13.31 5.598 12.857 11.124-.445 5.53-6.342 9.556-14.484 8.902z" class="B"/><path d="M214.475 117.223c4.18-10.335 14.062-18.425 21.077-15.588s8.505 15.513 4.326 25.856-12.445 14.413-19.461 11.577c-7.008-2.83-10.121-11.514-5.942-21.845z" class="C"/><path d="M219.134 114.847c3.061-7.577 10.122-13.044 15.259-10.963 5.145 2.084 6.425 10.904 3.36 18.488-3.061 7.577-9.31 11.035-14.455 8.954-5.144-2.073-7.228-8.902-4.164-16.479z" class="B"/><ellipse cx="240.971" cy="99.902" rx="17.994" ry="15.955" class="D"/><ellipse cx="240.971" cy="99.902" rx="11.861" ry="10.518" class="E"/><path d="M298.456 100.194c.659 7.543-2.829 15.495-7.944 15.94-5.122.445-9.938-6.769-10.597-14.301-.666-7.551 3.083-12.561 8.198-13.018 5.116-.445 9.677 3.843 10.343 11.379z" class="C"/><path d="M296.365 103.071c.483 5.527-2.099 10.997-5.848 11.334-3.757.322-7.252-4.61-7.738-10.144s2.23-9.553 5.979-9.875c3.756-.325 7.124 3.155 7.607 8.685z" class="B"/><path d="M311.186 112.179c-4.861 5.796-12.943 8.954-16.883 5.658-3.94-3.304-2.238-11.817 2.63-17.62 4.861-5.796 11.049-6.694 14.99-3.39s4.131 9.548-.737 15.352z" class="C"/><path d="M307.68 112.74c-3.566 4.247-9.268 6.301-12.153 3.873-2.881-2.413-1.856-8.389 1.703-12.644 3.566-4.254 8.333-5.175 11.21-2.754 2.892 2.421 2.813 7.274-.76 11.525z" class="B"/><path d="M289.072 141.155c-3.551-6.679-3.45-15.356 1.089-17.759 4.539-2.417 11.787 2.339 15.341 9.025s2.069 12.76-2.47 15.173-10.402.248-13.96-6.439z" class="C"/><path d="M289.869 137.705c-2.608-4.905-2.369-10.963.958-12.73 3.326-1.762 8.479 1.418 11.087 6.32 2.601 4.898 1.673 9.661-1.65 11.424-3.327 1.778-7.787-.123-10.395-5.014z" class="B"/><path d="M269.244 115.827c7.536-.76 15.51 2.623 16.026 7.746.505 5.108-6.649 10.013-14.178 10.758-7.536.76-12.591-2.93-13.111-8.03-.501-5.112 3.727-9.722 11.263-10.474z" class="C"/><path d="M272.14 117.878c5.527-.561 11.035 1.957 11.409 5.699.382 3.749-4.531 7.308-10.05 7.865-5.527.546-9.575-2.11-9.946-5.867-.382-3.75 3.061-7.155 8.587-7.697z" class="B"/><path d="M279.979 100.594c5.852 4.801 9.108 12.834 5.852 16.808-3.252 3.981-11.779 2.391-17.635-2.406-5.867-4.793-6.84-10.978-3.581-14.952 3.256-3.981 9.505-4.236 15.364.55z" class="C"/><path d="M280.578 104.097c4.296 3.514 6.417 9.186 4.026 12.101-2.391 2.922-8.367 1.964-12.666-1.542-4.296-3.521-5.276-8.266-2.885-11.18 2.384-2.915 7.229-2.897 11.525.621z" class="B"/><path d="M309.277 136.078c-7.577.045-15.207-4.071-15.237-9.201-.03-5.145 7.543-9.362 15.121-9.407 7.57-.052 12.262 4.086 12.292 9.224.038 5.137-4.602 9.331-12.176 9.384z" class="C"/><path d="M306.591 133.761c-5.553.045-10.81-2.982-10.832-6.746-.03-3.764 5.19-6.855 10.735-6.885 5.545-.037 9.332 2.99 9.362 6.761.022 3.757-3.72 6.84-9.265 6.87z" class="B"/><path d="M271.972 136.141c2.223-7.229 8.427-13.295 13.336-11.787s6.672 9.991 4.464 17.231c-2.215 7.244-7.57 10.488-12.483 8.988s-7.532-7.188-5.317-14.432z" class="C"/><path d="M274.98 134.27c1.624-5.313 6.073-9.429 9.676-8.325 3.596 1.104 4.992 7.001 3.368 12.307s-5.643 8.019-9.246 6.915c-3.607-1.097-5.418-5.598-3.798-10.897z" class="B"/><ellipse transform="matrix(.0873 .9962 -.9962 .0873 386.0276 -175.6566)" cx="288.875" cy="122.84" rx="10.829" ry="12.217" class="D"/><ellipse transform="matrix(.0875 .9962 -.9962 .0875 385.9331 -175.6567)" cx="288.847" cy="122.83" rx="7.136" ry="8.056" class="E"/><path d="M278.696 351.975l2.331-4.438-48.329 5.313-36.153-5.313 2.937 5.635-.546 1.463 36.228 5.306 44.479-5.306-.947-2.66z" class="B"/></svg>