<svg xmlns="http://www.w3.org/2000/svg" height="800" width="800" viewBox="0 0 512 512" fill="#000000" xmlns:v="https://vecta.io/nano"><path d="M337.168 289.578a13.16 13.16 0 0 0-18.598 0l-16.031 16.038c-4.68 4.68-12.122 5.149-17.352 1.102 0 0-15.332-10.109-40.402-35.179s-35.175-40.414-35.175-40.414c-4.055-5.226-3.578-12.656 1.102-17.343l16.031-16.031a13.14 13.14 0 0 0 0-18.594l-35.34-35.343c-5.133-5.133-13.453-5.133-18.594 0l-21.309 21.32c-22.602 22.594 7.293 91.82 57.574 142.118 50.289 50.281 119.527 80.164 142.121 57.578l21.305-21.32a13.13 13.13 0 0 0 0-18.586l-35.332-35.346zM256 0C114.614 0 0 114.617 0 256s114.614 256 256 256 256-114.617 256-256S397.386 0 256 0zm0 472c-119.102 0-216-96.898-216-216S136.898 40 256 40s216 96.898 216 216-96.898 216-216 216z"/></svg>