<svg xmlns="http://www.w3.org/2000/svg" xmlns:xlink="http://www.w3.org/1999/xlink" width="800" height="800" shape-rendering="geometricPrecision" image-rendering="optimizeQuality" fill-rule="evenodd" xmlns:v="https://vecta.io/nano"><style><![CDATA[.B{opacity:.004}.C{fill:#ab8c72}.D{opacity:.998}.E{fill:#e6b690}.F{opacity:.996}.G{fill:#f6b57c}.H{opacity:.928}]]></style><path fill="#f4eeee" d="M308.5 7.5h-1c-34.207-4.946-56.373 9.054-66.5 42-3.354 25.829 6.146 45.163 28.5 58v1c-11.723 65.43-9.723 130.43 6 195H255c-.853-1.625-1.853-1.958-3-1-52.51-9.845-98.51-32.845-138-69-.299-4.307-.466-8.474-.5-12.5 8.866-46.172 25.533-90.672 50-133.5 16.43-27.263 38.096-49.43 65-66.5 25.179-14.543 52.179-19.71 81-15.5a44.14 44.14 0 0 0-1 2z" opacity=".496"/><path fill="#aa9586" d="M307.5 7.5c-18.766 30.957-31.432 64.29-38 100-22.354-12.837-31.854-32.171-28.5-58 10.127-32.946 32.293-46.946 66.5-42z"/><path fill="#eee8e6" d="M349.5 61.5c2.246.955 4.579 1.622 7 2-26.197-1.654-48.03 7.347-65.5 27a73.38 73.38 0 0 0-10 18c3.191-25.492 17.358-41.326 42.5-47.5a141.33 141.33 0 0 1 26 .5z"/><path fill="#5e3a1e" d="M307.5 7.5h1c26.523 8.195 40.19 26.195 41 54a141.33 141.33 0 0 0-26-.5c-25.142 6.174-39.309 22.008-42.5 47.5a73.38 73.38 0 0 1 10-18c17.47-19.653 39.303-28.653 65.5-27 18.496 3.334 33.996 12 46.5 26 1.723 2.217 3.223 4.55 4.5 7-19.118 19.404-41.451 34.07-67 44-.338-7.846-3.671-14.013-10-18.5-8.923-.762-14.09 3.405-15.5 12.5-.933 6.91-.1 13.577 2.5 20-8.234 7.892-14.9 16.892-20 27-2.459-2.279-5.126-4.446-8-6.5l1-1c-2.383-.065-3.05-.898-2-2.5-12.262-17.109-15.596-36.442-10-58-2.786-2.106-5.786-3.773-9-5v-1c6.568-35.71 19.234-69.043 38-100z"/><path d="M407.5 96.5c12.154 19.797 14.321 40.797 6.5 63-2.106 5.23-4.939 9.897-8.5 14-8.548-2.267-17.048-4.933-25.5-8l-1.5 1c4.76 7.097 10.76 12.763 18 17-3.59 4.076-7.923 7.243-13 9.5.84 1.666.34 1.833-1.5.5l-10 6c-.414-.457-.914-.791-1.5-1-3.361 2.041-6.694 3.374-10 4-2.734-1.04-5.734-1.04-9 0-14.047-.668-27.381-4.334-40-11-.683.363-1.35.696-2 1-1.694-3.031-4.36-4.864-8-5.5 1.154-.914.987-1.747-.5-2.5-2.005.532-3.171-.468-3.5-3 5.1-10.108 11.766-19.108 20-27-2.6-6.423-3.433-13.09-2.5-20 1.41-9.095 6.577-13.262 15.5-12.5 6.329 4.487 9.662 10.654 10 18.5 25.549-9.93 47.882-24.596 67-44z" class="D E"/><path fill="#5e3a1d" d="M663.5 206.5c.193 4.899 1.526 9.232 4 13 .547 10.184-.453 20.184-3 30-4.302 13.265-11.636 24.599-22 34-7.422 5.746-14.922 10.746-22.5 15-1.461-.437-2.628-.437-3.5 0a59.44 59.44 0 0 1 3.5-10c.395-10.15-2.439-19.317-8.5-27.5 3.457-4.406 6.29-9.239 8.5-14.5a64.22 64.22 0 0 0 0-16c-6.236-7.458-13.069-7.958-20.5-1.5a44.86 44.86 0 0 0-7 8.5l-41-45.5c-7.063-5.917-14.73-10.75-23-14.5-2.066-2.774-4.732-4.941-8-6.5.459-1.943-.541-3.276-3-4 .799-1.749.132-3.082-2-4v-3l-2-1v-26c1.146-.645 2.146-1.478 3-2.5a109.96 109.96 0 0 0 14.5 16c-2.028-8.394-1.194-17.228 2.5-26.5l-1-1c1.456-1.745 2.789-3.578 4-5.5 3.238 5.468 6.738 10.801 10.5 16 3.91 3.708 8.41 6.542 13.5 8.5 29.455 4.073 56.122 14.74 80 32 11.114 10.075 18.78 22.241 23 36.5z" class="D"/><path fill="#373535" d="M397.5 134.5c4.352-.178 6.352 1.988 6 6.5.121 4.883-1.879 8.383-6 10.5-3.245-1.314-4.578-3.814-4-7.5-.161-3.84 1.172-7.006 4-9.5z"/><path fill="#c9956b" d="M405.5 173.5c-2.266 3.936-5.266 7.269-9 10-7.24-4.237-13.24-9.903-18-17l1.5-1c8.452 3.067 16.952 5.733 25.5 8z"/><path d="M528.5 177.5c8.27 3.75 15.937 8.583 23 14.5l41 45.5a44.86 44.86 0 0 1 7-8.5c7.431-6.458 14.264-5.958 20.5 1.5a64.22 64.22 0 0 1 0 16c-2.21 5.261-5.043 10.094-8.5 14.5 6.061 8.183 8.895 17.35 8.5 27.5a59.44 59.44 0 0 0-3.5 10c-1.929.506-3.595 1.506-5 3l-2-1a79.17 79.17 0 0 1-10 2c-.891.61-1.891.943-3 1-10.739-.35-21.406-2.017-32-5-1.574-1.428-3.241-1.761-5-1-10.474-5.147-20.141-12.147-29-21-6.252-7.492-11.252-15.825-15-25 10.362 2.243 19.695.076 28-6.5a340.35 340.35 0 0 1-32-6.5c-2.343-13.537-.676-27.037 5-40.5-1.134-1.016-.801-1.683 1-2l-1-1c1.333-.667 2.333-1.667 3-3v-3a143.03 143.03 0 0 0 9-11.5z" class="D E"/><path fill="#c69369" d="M351.5 202.5v2c-7.277 1.483-14.777 2.15-22.5 2-6.655.217-13.155-.449-19.5-2-.333-4.167-.333-8.167 0-12 .65-.304 1.317-.637 2-1 12.619 6.666 25.953 10.332 40 11z" class="D"/><path fill="#373535" d="M533.5 203.5c4.67.115 6.67 2.615 6 7.5-.132 5.274-2.466 9.108-7 11.5-.942-.108-1.775-.441-2.5-1-2.734-6.82-1.568-12.82 3.5-18z"/><path d="M309.5 204.5c6.345 1.551 12.845 2.217 19.5 2 7.723.15 15.223-.517 22.5-2 6.624 5.143 11.124 11.81 13.5 20 .776 3.389 1.609 6.722 2.5 10-8.227-2.626-16.227-1.96-24 2 6.738 10.858 14.405 20.858 23 30a326.03 326.03 0 0 0 72 70c6.436-1.728 12.603-1.061 18.5 2 .765-.07 1.265-.403 1.5-1 10.075 2.068 16.741 8.068 20 18-.741 3.672-1.907 7.339-3.5 11-1.957 1.389-3.79 2.889-5.5 4.5.243.902.577 1.735 1 2.5-1.235-.221-2.235-.888-3-2-4.669 2.241-9.169 1.907-13.5-1l-1 1a33.08 33.08 0 0 0-12.5-7c-5.399-6.246-10.899-11.579-16.5-16-14.946-8.363-29.112-17.529-42.5-27.5a28.93 28.93 0 0 1-4-1.5c-4.44-4.453-9.106-8.453-14-12-16.935-13.767-32.435-29.101-46.5-46-.765-2.696-1.932-5.196-3.5-7.5-3.835.912-7.501 2.412-11 4.5l4-29c-.877-2.182-.544-4.349 1-6.5-1.042-2.451-.708-4.784 1-7-.085-1.107-.419-2.107-1-3 1.304-.804 1.971-1.971 2-3.5-1.307-1.682-1.307-3.348 0-5z" class="E F"/><path fill="#986f50" d="M663.5 206.5c2.071 4.036 3.404 8.369 4 13-2.474-3.768-3.807-8.101-4-13z" opacity=".78"/><path fill="#f4eeed" d="M367.5 234.5c-.134 1.792.199 3.458 1 5-.942 8.83-1.608 17.83-2 27-8.595-9.142-16.262-19.142-23-30 7.773-3.96 15.773-4.626 24-2z" opacity=".999"/><path fill="#c8946b" d="M511.5 238.5a340.35 340.35 0 0 0 32 6.5c-8.305 6.576-17.638 8.743-28 6.5-1.178-2.916-2.511-5.75-4-8.5 1.228-1.49 1.228-2.99 0-4.5z"/><path fill="#c8946a" d="M368.5 239.5c23.998 38.005 53.998 70.672 90 98-.235.597-.735.93-1.5 1-5.897-3.061-12.064-3.728-18.5-2a326.03 326.03 0 0 1-72-70c.392-9.17 1.058-18.17 2-27z" opacity=".993"/><path d="M664.5 249.5c1.333.667 1.333.667 0 0z" class="B C"/><path fill="#f4efef" d="M363.5 307.5c-1.151 6.512-2.151 13.179-3 20 18.919 4.793 35.919 13.293 51 25.5 27.795 24.481 48.628 53.981 62.5 88.5 16.598 41.06 25.598 83.726 27 128-2.688 1.864-5.188 3.864-7.5 6-13.762 9.621-27.095 17.454-40 23.5.84 1.666.34 1.833-1.5.5-7.147 4.28-14.814 7.614-23 10a27.09 27.09 0 0 0-7.5 4c-1.406-1.168-2.572-.835-3.5 1l-1-1c-1.067.691-2.234 1.191-3.5 1.5 1.196.654 1.196 1.154 0 1.5-3.106-.85-5.939-.183-8.5 2-2.749-.853-5.249-.187-7.5 2-3.256-.581-6.423.085-9.5 2-3.111-.793-6.277-.626-9.5.5.822 3.307.822 6.807 0 10.5-4.244 5.025-9.41 8.025-15.5 9-11.924 3.464-23.758 2.63-35.5-2.5a55.48 55.48 0 0 1-7-5.5 23.83 23.83 0 0 1-1-9c-11.463.191-22.463-1.142-33-4a101.54 101.54 0 0 0-9 0c-1.913-.873-3.747-1.873-5.5-3-19.672-3.602-39.339-10.935-59-22-.718.951-1.551 1.117-2.5.5-5.837-4.513-12.003-8.68-18.5-12.5-6.186-2.4-11.853-6.4-17-12l-1 1c-.903-1.201-2.069-2.035-3.5-2.5l1-1c-1.078-.674-1.745-1.674-2-3 1.198-4.058 1.198-8.058 0-12 1.579-4.837 2.579-9.837 3-15-.085-1.107-.419-2.107-1-3a196.99 196.99 0 0 0 4-19.5c6.6-43.167 22.1-84.167 46.5-123a222.34 222.34 0 0 1 48.5-49.5c13.926-8.794 28.926-15.127 45-19l-5-19c1.227-1.587.894-2.921-1-4l1-1a43.22 43.22 0 0 0-3-11c.714-1.343.38-2.676-1-4 1.425-1.714 1.092-3.047-1-4l1-3c-.395-3.267-1.395-6.267-3-9 1.425-1.714 1.092-3.047-1-4 .655-3.182.655-6.015 0-8.5 3.499-2.088 7.165-3.588 11-4.5 1.568 2.304 2.735 4.804 3.5 7.5 14.065 16.899 29.565 32.233 46.5 46z" opacity=".992"/><g class="C"><path d="M530.5 276.5c-.667.667-.667.667 0 0zm112 7c1.333.667 1.333.667 0 0z" class="B"/></g><path fill="#323231" d="M564.5 298.5c-.166 8.34 0 16.673.5 25a52.96 52.96 0 0 0 5.5-15 446.95 446.95 0 0 0 26-5c1.109-.057 2.109-.39 3-1l16 217c-29.817-1.297-59.484-1.297-89 0 .43-21.839.43-44.005 0-66.5 2.956-5.535 2.623-10.868-1-16 .626-.75 1.126-1.584 1.5-2.5.242-3.197.408-6.197.5-9 .617-.111 1.117-.444 1.5-1a225.76 225.76 0 0 1 11.5 8.5c1.333.667 2.667.667 4 0 14.977-13.636 28.477-28.47 40.5-44.5 10.304-13.227 13.304-27.893 9-44-5.021-10.635-12.521-12.802-22.5-6.5-3.373 3.292-6.373 6.792-9 10.5a12.93 12.93 0 0 0-.5-5 298.11 298.11 0 0 1-4.5 13c.124.607.457.94 1 1-7.144 12.278-14.811 24.278-23 36-2.082 1.394-3.749 1.061-5-1 1.759-6.191 4.092-12.191 7-18-.209-.586-.543-1.086-1-1.5 2.04-2.781 3.707-5.781 5-9l-1-1c6.309-13.967 11.975-27.967 17-42-.962-2.405-.629-4.739 1-7 .007-1.583-.326-3.249-1-5 1.832-3.829 2.499-7.662 2-11.5 1.759-.761 3.426-.428 5 1z" opacity=".994"/><path fill="#f0ebea" d="M564.5 298.5c10.594 2.983 21.261 4.65 32 5a446.95 446.95 0 0 1-26 5 52.96 52.96 0 0 1-5.5 15c-.5-8.327-.666-16.66-.5-25z"/><path fill="#1a1a1a" d="M527.5 425.5c-6.122-4.204-12.122-9.204-18-15a3 3 0 0 0-2-2c-1.445-1.563-3.111-2.896-5-4l-16-15c-.79-.901-1.79-1.568-3-2l-13-14c-.423-.765-.757-1.598-1-2.5 1.71-1.611 3.543-3.111 5.5-4.5 1.593-3.661 2.759-7.328 3.5-11 16.198 13.854 33.531 26.187 52 37 1.251 2.061 2.918 2.394 5 1 8.189-11.722 15.856-23.722 23-36 1.608-2.882 2.941-5.882 4-9 2.627-3.708 5.627-7.208 9-10.5 9.979-6.302 17.479-4.135 22.5 6.5 4.304 16.107 1.304 30.773-9 44-12.023 16.03-25.523 30.864-40.5 44.5-1.333.667-2.667.667-4 0a225.76 225.76 0 0 0-11.5-8.5c-.383.556-.883.889-1.5 1z" class="F"/><path fill="#b7b0ad" d="M562.5 348.5c-1.059 3.118-2.392 6.118-4 9-.543-.06-.876-.393-1-1a298.11 298.11 0 0 0 4.5-13 12.93 12.93 0 0 1 .5 5z"/><path fill="#b9987e" d="M483.5 387.5c1.21.432 2.21 1.099 3 2-1.679.215-2.679-.452-3-2z" class="B"/><g class="C"><path d="M502.5 404.5c-.667.667-.667.667 0 0zm5 4a3 3 0 0 1 2 2c-.739.131-1.406-.036-2-.5-1.238-.69-1.238-1.19 0-1.5z" class="B"/></g><path fill="#21201f" d="M615.5 519.5v6c-9.363 1.309-18.697 1.309-28 0-16.926-1.151-33.926-1.318-51-.5-.544.717-1.211 1.217-2 1.5-2.107-.968-4.441-1.302-7-1-1.328-1.944-1.661-3.944-1-6 29.516-1.297 59.183-1.297 89 0z" class="F"/><path fill="#cca98e" d="M527.5 525.5c2.559-.302 4.893.032 7 1v1c-2.452-.565-4.785-1.232-7-2z" opacity=".016"/><path fill="#323131" d="M587.5 525.5c-3.357 22.118-7.357 44.118-12 66l1 1 80-11a323.1 323.1 0 0 0 7 24l-13 6c-27.454 9.477-55.787 18.644-85 27.5 1.388.889 1.222 1.389-.5 1.5-.772-.145-1.439-.478-2-1-.605 1.981-1.605 2.315-3 1a16.45 16.45 0 0 0-8 4l-1-1-28 2c-.398-5.037.102-10.204 1.5-15.5.183-2.893-.151-5.893-1-9l1.5-1.5a271.19 271.19 0 0 1 1.5-19.5c-.717-2.787-.383-5.621 1-8.5.433-4.75.433-9.583 0-14.5 2.07-3.883 2.403-7.883 1-12 2.032-3.527 2.366-6.861 1-10 1.547-2.773 2.547-5.773 3-9 .571-4.189.571-8.523 0-13 .964-1.725 1.631-3.559 2-5.5v-1c.789-.283 1.456-.783 2-1.5 17.074-.818 34.074-.651 51 .5z" opacity=".992"/><g class="C"><path d="M615.5 525.5c1.333.667 1.333.667 0 0zm-122 50c1.333.667 1.333.667 0 0z" class="B"/></g><path fill="#1b1a1a" d="M681.5 641.5c-1.294.79-2.461 1.79-3.5 3-2.217-.437-4.551-.437-7 0a32.6 32.6 0 0 1-4.5-4c-.473-1.406-1.473-2.073-3-2-.777-2.612-2.444-4.445-5-5.5l1-1c-1.349-.772-2.182-1.939-2.5-3.5-.75-.626-1.584-1.126-2.5-1.5.348-2.055-.319-4.055-2-6 1.134-1.016.801-1.683-1-2 1.227-1.587.894-2.921-1-4 .671-.986.671-2.153 0-3.5l13-6a323.1 323.1 0 0 1-7-24c4.469-2.266 8.802-1.766 13 1.5 14.08 13.908 19.58 30.742 16.5 50.5-.738 3.148-2.238 5.815-4.5 8z" opacity=".988"/><path d="M378.5 633.5c1.333.667 1.333.667 0 0z" class="B C"/><path d="M720.5 638.5c6.021-1.142 8.688 1.358 8 7.5a791.3 791.3 0 0 0-13.5 64.5 154.31 154.31 0 0 0-1 32c.436 2.547 1.936 3.88 4.5 4 3.858-1.597 7.858-2.597 12-3-1.255-23.079 6.412-42.579 23-58.5 20.209-10.336 28.376-4.503 24.5 17.5-7.692 13.37-18.026 23.37-31 30-5.748 5.203-5.915 10.703-.5 16.5 8.36 2.784 16.027 1.451 23-4 4.523-3.023 8.19-6.856 11-11.5 5.117-2.052 6.95-.385 5.5 5-6.69 14.684-18.023 23.351-34 26a245.39 245.39 0 0 0-8.5-2c-.586.209-1.086.543-1.5 1-5.61-3.756-9.277-9.422-11-17a22.98 22.98 0 0 1-2 5c-5.299 6.533-11.632 9.2-19 8l-2.5-1c-1.559-2.632-3.226-5.132-5-7.5 1.183-2.155.85-4.155-1-6 1.126-3.744 1.293-7.577.5-11.5-6.976 12.142-16.476 21.809-28.5 29-1.871-1.267-3.704-1.267-5.5 0-3.57-.619-6.57-2.286-9-5-2.559-4.88-4.393-9.714-5.5-14.5 2.064-18.82 10.064-35.486 24-50 6.938-6.029 14.938-8.029 24-6a17.84 17.84 0 0 1 5.5 4.5c1.276-2.866 1.443-5.7.5-8.5 2.092-.953 2.425-2.286 1-4l1.5-1.5c1.423-12.146 3.923-23.979 7.5-35.5l-1-1c1.566-.608 2.9-1.442 4-2.5zm42 54c5.175-.993 7.009 1.007 5.5 6-4.067 7.069-9.234 13.236-15.5 18.5-2.699 2.51-5.699 4.176-9 5 3.651-12.28 9.984-22.113 19-29.5zm-72 5c2.662 1.139 5.329 1.306 8 .5l-1 1c3.656 1.27 5.656 3.936 6 8-3.938 12.835-10.604 24.502-20 35-2.828 2.248-5.828 4.248-9 6-6.343 1.332-9.343-1.335-9-8 2.596-17.712 10.929-31.879 25-42.5z" opacity=".955" class="G"/><path fill="#927863" d="M663.5 638.5c1.527-.073 2.527.594 3 2-1.527.073-2.527-.594-3-2z" class="B"/><path d="M681.5 641.5c1.333.667 1.333.667 0 0z" class="B C"/><g class="G"><path d="M651.5 642.5a32.46 32.46 0 0 1 8 .5c2.094 1.255 3.094 3.088 3 5.5.101 8.498-3.732 14.165-11.5 17a20.5 20.5 0 0 1-3.5-2.5l1-1c-1.209-3.72-2.543-7.387-4-11 1.713-1.925 3.047-4.092 4-6.5 1.239-.442 2.239-1.109 3-2z" opacity=".949"/><path d="M531.5 649.5c6.009-.166 12.009.001 18 .5 4.972 1.625 7.639 4.958 8 10-.232 6.661-2.732 11.494-7.5 14.5a14.89 14.89 0 0 1-5.5-5.5l1-1a16.66 16.66 0 0 1-4-4c-7.295-1.384-14.295.282-21 5-18.192 13.533-30.025 31.366-35.5 53.5a64.22 64.22 0 0 0 0 16c1.515 6.681 5.681 9.681 12.5 9a41.79 41.79 0 0 0 20-6.5c6.428-3.766 12.262-8.266 17.5-13.5a36.16 36.16 0 0 0 4-7c1.395-6.044 2.895-12.044 4.5-18 3.667-1.333 7.333-1.333 11 0 1.152 2.606 1.318 5.273.5 8-7.449 19.69-10.449 40.023-9 61-4.158 5.278-8.491 5.278-13 0-.207-3.589-.707-7.089-1.5-10.5 1.158-1.009 1.825-2.342 2-4 1.218-5.463 1.718-10.963 1.5-16.5-11.502 11.538-24.502 18.205-39 20-12.925-.59-20.591-7.256-23-20a99.1 99.1 0 0 0-1.5-13.5c3.83-26.051 16.497-48.218 38-66.5 6.868-4.767 14.201-8.434 22-11z" opacity=".957"/></g><path fill="#050403" d="M303.5 651.5a32.46 32.46 0 0 1 8 .5c1.48 1.299 2.146 2.966 2 5 .47 8.008-3.03 13.174-10.5 15.5-2.902-4.948-3.902-10.281-3-16 .697-2.084 1.864-3.751 3.5-5z" opacity=".914"/><g fill="#030202"><path d="M120.5 662.5c6.198-.755 9.198 1.912 9 8-2.462 20.957-4.462 41.957-6 63 2.103 7.333 2.27 14.666.5 22-4.31 2.866-7.643 1.866-10-3-.667-7-.667-14 0-21l4-49A753.38 753.38 0 0 1 85.5 731c-5.429 4.114-9.263 2.947-11.5-3.5l-12-39L48.5 758c-5.655 1.722-8.655-.611-9-7A1412.99 1412.99 0 0 1 51 694.5c1.498-9.317 2.664-18.65 3.5-28 3.535-2.628 7.035-2.628 10.5 0 5.308 15.895 10.308 31.895 15 48a12.41 12.41 0 0 0 2.5 4l38-56z" class="H"/><path d="M442.5 685.5c13.012-2.322 18.179 3.012 15.5 16-2.721 8.256-7.554 15.089-14.5 20.5a472.41 472.41 0 0 0-16.5 12.5c-.223 10.104 4.61 13.938 14.5 11.5 7.487-3.148 13.487-8.148 18-15 2.737-1.08 4.404-.246 5 2.5-5.23 14.4-15.397 22.734-30.5 25-9.404-.736-15.071-5.736-17-15-2.585-20.912 3.581-38.746 18.5-53.5l7-4.5zm1 10h5c.21 4.916-1.29 9.249-4.5 13-4.409 5.08-9.409 9.414-15 13 1.458-10.586 6.292-19.253 14.5-26z" opacity=".923"/></g><path d="M571.5 685.5c6.132-1.523 9.465.81 10 7a495.36 495.36 0 0 0-8.5 37c-.95 5.82-.45 11.487 1.5 17 3.222 1.258 6.222.758 9-1.5 12.189-11.782 19.522-25.115 22-40 2.308-1.588 2.975-3.588 2-6 2.132-.918 2.799-2.251 2-4 2.533-4.276 6.033-5.443 10.5-3.5a10.41 10.41 0 0 1 1.5 5c-4.807 16.44-5.973 33.107-3.5 50 1.463 4.09 3.296 7.923 5.5 11.5-.929 3.926-3.429 6.093-7.5 6.5a13.24 13.24 0 0 1-5-3c-2.207-4.732-4.04-9.565-5.5-14.5 1.407-4.536 1.24-9.036-.5-13.5-4.996 9.994-11.83 18.494-20.5 25.5-8.86 5.122-15.527 3.455-20-5-3.269-7.764-3.936-15.597-2-23.5-.833-2-.666-3.666.5-5 1.521-9.927 3.354-19.427 5.5-28.5-.145-.772-.478-1.439-1-2 .535-3.579 1.869-6.745 4-9.5z" opacity=".955" class="G"/><g fill="#040302"><use xlink:href="#B" class="H"/><use xlink:href="#B" x="174" class="H"/></g><path fill="#f7b57c" d="M633.5 762.5c-.418-.722-1.084-1.222-2-1.5-.07-7.689.096-15.523.5-23.5l6-45c1.236-5.72 4.736-7.553 10.5-5.5 1.545 1.822 2.212 3.989 2 6.5-2.482 11.263-4.648 22.596-6.5 34a374.41 374.41 0 0 0 0 33c-3.112 3.781-6.612 4.448-10.5 2z" opacity=".95"/><path fill="#040302" d="M198.5 688.5c2.619-.268 5.119.065 7.5 1l-3 37c3.694-10.389 8.694-20.056 15-29 4.98-7.409 11.814-10.243 20.5-8.5a14.51 14.51 0 0 1 4.5 4.5c1.777-4.937 5.11-6.27 10-4l-3 37c4.251-13.681 11.418-25.515 21.5-35.5 10.291-5.554 16.958-2.888 20 8-.148 3.137-1.648 5.304-4.5 6.5-2.967-1.473-5.8-3.139-8.5-5-3.501.993-6.334 2.993-8.5 6-10.865 15.564-17.699 32.731-20.5 51.5-4.684 2.407-7.517.907-8.5-4.5-.307-4.857-.807-9.69-1.5-14.5a470.51 470.51 0 0 0 1.5-34.5l-1 1c-2.967-1.473-5.8-3.139-8.5-5a10.26 10.26 0 0 0-4 1.5c-13.962 15.866-22.128 34.366-24.5 55.5-4.762 3.125-7.762 1.792-9-4a301.19 301.19 0 0 1 2-60l2.5-5z" opacity=".929"/><path fill="#030302" d="M399.5 688.5c4.014-.166 8.014.001 12 .5 4.337 2.331 6.671 5.997 7 11a534.85 534.85 0 0 0-4.5 15.5l-7 53c-2.458 11.106-8.625 19.272-18.5 24.5-15.309 1.928-27.142-3.572-35.5-16.5-.495-1.973-.662-3.973-.5-6 5.069.534 9.402 2.701 13 6.5 7.853 5.817 16.186 6.817 25 3 4.789-6.361 7.622-13.528 8.5-21.5 1.66-7.938 2.326-15.938 2-24-6.88 10.095-16.213 16.429-28 19-7.737-1.607-11.237-6.441-10.5-14.5 2.029-17.043 9.695-31.043 23-42 4.332-3.523 8.999-6.356 14-8.5zm-1 11c5-1.265 7.667.568 8 5.5-3.042 16.093-11.709 28.093-26 36-4.305 1.539-6.972.206-8-4 3.859-15.902 12.526-28.402 26-37.5z" opacity=".93"/><path fill="#020202" d="M294.5 690.5c2.357-.163 4.69.003 7 .5 1.507 1.473 2.174 3.307 2 5.5l-5.5 28c-.766 9.191-.599 18.358.5 27.5-.809 3.476-2.976 5.643-6.5 6.5a13.92 13.92 0 0 1-4-3c-1.196-3.674-2.029-7.174-2.5-10.5a1199.14 1199.14 0 0 1 9-54.5z" opacity=".914"/><path d="M633.5 762.5c-.667.667-.667.667 0 0z" class="B C"/><defs ><path id="B" d="M164.5 686.5c3.018-.165 6.018.002 9 .5 2.018 1.857 3.685 4.024 5 6.5 1.559.574 3.059 1.24 4.5 2-1.514 14.276-2.18 28.609-2 43l2 6c6.44 5.913 5.44 10.247-3 13l-4-2-5.5-10.5c.559-.725.892-1.558 1-2.5a100.32 100.32 0 0 1-1.5-8c-6.151 10.835-15.151 17.835-27 21-5.817-1.237-9.15-4.904-10-11-.61-12.557 2.39-24.224 9-35 5.048-10.213 12.548-17.88 22.5-23zm0 11c2.864-.436 5.197.397 7 2.5.314 17.699-7.019 32.032-22 43-4.769 1.406-7.102-.428-7-5.5 3.197-15.736 10.53-29.069 22-40z"/></defs></svg>