<svg xmlns="http://www.w3.org/2000/svg" width="28" height="28" fill="none" xmlns:v="https://vecta.io/nano"><path d="M14.003 13.65a2.35 2.35 0 0 0 1.729-.721c.478-.48.717-1.058.717-1.732a2.35 2.35 0 0 0-.721-1.729c-.48-.478-1.058-.717-1.732-.717a2.35 2.35 0 0 0-1.729.721c-.478.48-.717 1.058-.717 1.732a2.35 2.35 0 0 0 .721 1.729c.48.478 1.058.718 1.733.718zM14 25.235c3.103-2.823 5.396-5.384 6.878-7.683S23.1 13.23 23.1 11.48c0-2.748-.878-4.999-2.635-6.751S16.553 2.1 14 2.1s-4.708.876-6.465 2.629S4.9 8.732 4.9 11.48c0 1.75.758 3.774 2.275 6.072s3.792 4.859 6.825 7.683zM14 28c-3.757-3.197-6.562-6.166-8.417-8.907S2.8 13.813 2.8 11.48c0-3.5 1.126-6.288 3.378-8.365S11.037 0 14 0s5.571 1.038 7.823 3.115S25.2 7.98 25.2 11.48c0 2.333-.927 4.871-2.782 7.613S17.757 24.803 14 28z" fill="#fff"/></svg>