<svg xmlns="http://www.w3.org/2000/svg" viewBox="0 0 182.686 182.686" width="800" height="800" fill="#000000" xmlns:v="https://vecta.io/nano"><style><![CDATA[.B{fill:#e7b791}.C{fill:#f5f0f0}.D{fill:#323232}.E{fill:#5e3a1d}.F{fill:#c79369}.G{fill:#1a1a1a}]]></style><g fill-rule="evenodd"><g class="F"><path d="M80.171 64.41c6.315 10.541 17.925 24.328 30.624 32.85l-2.41 3.432c-12.892-6.36-28.598-19.559-34.397-27.099-6.925-9.006-.187-19.817 6.183-9.183z"/><path d="M65.803 47.544h11.633V63.96H65.803z"/></g><path d="M67.725 93.985l-3.99-21.568 2.067-15.183c3.808.627 7.687.606 11.633 0 2.696 1.381 5.354 8.459 4.609 14.371l-2.357 22.378-11.962.002z" class="B"/><ellipse transform="matrix(.1905 -.9817 .9817 .1905 34.0518 72.9698)" cx="61.274" cy="15.836" rx="15.362" ry="15.517" class="E"/><ellipse transform="matrix(.1905 -.9817 .9817 .1905 28.153 96.6489)" cx="72.683" cy="31.253" rx="15.362" ry="15.517" class="C"/><ellipse transform="matrix(.1906 -.9817 .9817 .1906 25.8034 104.6276)" cx="76.347" cy="36.667" rx="19.555" ry="20.202" class="B"/><g class="C"><path d="M72.954 91.522c24.945 0 45.365 30.695 47.061 69.561-12.913 10.176-29.269 16.261-47.061 16.261s-34.147-6.085-47.062-16.261c1.696-38.866 22.117-69.561 47.062-69.561z"/><path d="M63.735 72.417c1.433.025 11.946-9.161 18.041-6.872.386 1.98.518 4.085.269 6.061l-2.334 22.152-.023.227H67.725l-3.99-21.568z"/></g><g class="B"><path d="M74.792 65.599c6.626 10.349 18.642 23.783 31.589 31.923l-2.308 3.502C90.998 95.05 74.905 82.326 68.886 74.962c-7.191-8.795-.779-19.803 5.906-9.363z"/><path d="M107.622 95.306c1.35.736 1.396 1.604.573 2.316 2.122.828 3.006 3.072 2.434 4.122-1.113 2.042-4.266 2.471-7.041.958s-4.121-4.396-3.007-6.438 4.265-2.471 7.041-.958z"/></g><path d="M76.855 182.491c4.619 0 8.387-1.892 8.387-4.212s-3.768-4.212-8.387-4.212-8.387 1.893-8.387 4.212 3.768 4.212 8.387 4.212z" class="C"/><path d="M93.449 26.48C78.087 41.262 68.885 37.101 62.175 50.437c-4.609-4.474-6.946-10.992-5.659-17.62 2.058-10.602 12.605-17.473 23.559-15.347 5.763 1.119 10.488 4.507 13.374 9.01z" class="E"/><ellipse transform="matrix(-.0359 -.9994 .9994 -.0359 33.9681 111.1825)" cx="70.612" cy="39.207" rx="5.761" ry="3.687" class="B"/><path d="M65.335.31c-14.553 22.459-16.89 57.39-9.737 85.172l-.562-.048C37.315 83.838 21.573 76.31 9.624 65.015 13.11 39.048 30.769-4.072 65.335.31z" opacity=".5" class="C"/><ellipse transform="matrix(.1906 -.9817 .9817 .1906 34.7575 121.1927)" cx="90.871" cy="39.519" rx="2.467" ry="1.409" class="D"/><path d="M92.982 47.952c-3.079-.631-6.1-1.405-8.037-2.102 1.235 2.25 3.241 3.948 5.518 4.974a19.37 19.37 0 0 0 2.519-2.872z" class="F"/><path d="M137.439 82.988h10.696v9.654h-10.696z" class="C"/><g class="D"><path d="M126.951 178.183l1.667-18.958 1.704-12.757.561-4.252 14.668 1.98-6.452 35.628z"/><path d="M130.883 142.216l.205.027-.766 4.227v-.002z"/></g><path d="M127.593 143.564h24.79l.324 5.012h-25.098z" class="G"/><path d="M152.602 146.909l-4.429-61.752-8.077 1.786-11.794 30.713-.721 29.138z" class="D"/><path d="M138.506 84.18c-1.255 19.334-.81 28.651-9.455 35.447l-.025-8.282 7.52-20.958.895-7.399 1.065 1.192z" class="C"/><path d="M138.251 81.833l.076 12.484-.565 1.948-5.705 18.319-4.351 9.802 1.01-13.641 7.829-20.357.601-6.409c.092-.974-.553-4.729-.553-4.729l1.658 2.583z" class="D"/><ellipse transform="matrix(-.9576 .2882 -.2882 -.9576 378.6589 291.0675)" cx="167.905" cy="173.405" rx="4.619" ry="9.197" class="G"/><path d="M166.613 171.859l-33.563 10.823-6.457.004 1.084-12.761 36.831-5.101 2.105 7.035z" class="D"/><g class="G"><path d="M135.859 114.946c-8.226-4.174-16.509-9.437-23.252-15.453l-2.988 3.496c5.887 6.853 14.411 14.075 22.422 19.765l3.818-7.808z"/><path d="M137.226 99.259c-2.889 5.5-6.969 11.824-11.839 18.034l6.919 5.261c5.314-5.029 9.74-9.945 12.253-13.621 7.03-10.284-1.01-21.706-7.333-9.674z"/></g><path d="M110.123 95.735c-1.415-.916-2.276-.506-2.533.659-1.907-1.613-4.533-1.29-5.245-.19-1.386 2.142-.15 5.404 2.76 7.287s6.392 1.673 7.777-.469.151-5.404-2.759-7.287z" class="B"/><g class="E"><path d="M163.22 65.02c-12.235-13.301-44.514-8.258-38.738-28.893 5.335 7.67 7.976 5.536 17.296 6.598 9.401 1.072 20.293 7.304 21.442 22.295z"/><path d="M163.706 66.061c-9.851-15.152-42.519-15.551-33.39-34.938 3.983 8.452 6.942 6.786 15.957 9.385 9.092 2.623 18.795 10.58 17.433 25.553z"/></g><ellipse transform="matrix(.248 -.9688 .9688 .248 47.7482 188.5202)" cx="145.304" cy="63.504" rx="21.443" ry="22.153" class="B"/><path d="M133.137 45.382c1.694 15.755 26.862 28.091 19.749 38.423 6.667-2.271 12.042-7.633 13.879-14.806 2.938-11.472-4.29-23.232-16.143-26.267-6.237-1.597-12.511-.458-17.485 2.65z" class="E"/><ellipse transform="matrix(.4603 -.8877 .8877 .4603 19.8385 170.0622)" cx="149.795" cy="68.714" rx="6.318" ry="4.044" class="B"/><ellipse transform="matrix(.248 -.9688 .9688 .248 39.7869 170.2803)" cx="129.571" cy="59.513" rx="2.706" ry="1.546" class="D"/><path d="M123.521 66.881c3.348.819 6.704 1.471 8.952 1.69-2.281 1.649-5.066 2.391-7.804 2.339-.513-1.299-.898-2.648-1.148-4.029z" class="F"/><path d="M128.218 49.183c4.295 2.574 8.176 5.423 12.326 10.874 4.563 5.992 22.744-11.629 14.523-15.837s-18.482-7.278-26.849 4.963z" class="E"/></g></svg>