<svg xmlns="http://www.w3.org/2000/svg" width="41" height="41" fill="none" xmlns:v="https://vecta.io/nano"><path d="M4.175 34c-.692 0-1.248-.223-1.669-.668s-.631-1.004-.631-1.675.21-1.215.631-1.632.977-.625 1.669-.625h33.55c.659 0 1.207.211 1.644.634s.656.97.656 1.641-.218 1.227-.656 1.666-.985.659-1.644.659H4.175zm0-11.45c-.692 0-1.248-.223-1.669-.668s-.631-.987-.631-1.625c0-.671.21-1.215.631-1.632S3.483 18 4.175 18h33.55c.659 0 1.207.211 1.644.634s.656.97.656 1.641c0 .638-.218 1.177-.656 1.616s-.985.659-1.644.659H4.175zm0-11.45c-.692 0-1.248-.214-1.669-.643s-.631-.995-.631-1.7c0-.638.21-1.174.631-1.607s.977-.65 1.669-.65h33.55c.659 0 1.207.22 1.644.659a2.2 2.2 0 0 1 .656 1.616c0 .705-.218 1.268-.656 1.691s-.985.634-1.644.634H4.175z" fill="#000"/></svg>