<?xml version="1.0" standalone="no"?>
<!DOCTYPE svg PUBLIC "-//W3C//DTD SVG 20010904//EN"
 "http://www.w3.org/TR/2001/REC-SVG-20010904/DTD/svg10.dtd">
<svg version="1.0" xmlns="http://www.w3.org/2000/svg"
 width="512.000000pt" height="512.000000pt" viewBox="0 0 512.000000 512.000000"
 preserveAspectRatio="xMidYMid meet">
<metadata>
Created by potrace 1.14, written by Peter Selinger 2001-2017
</metadata>
<g transform="translate(0.000000,512.000000) scale(0.100000,-0.100000)"
fill="#000000" stroke="none">
<path d="M1546 5083 c10 -72 38 -147 71 -190 l33 -43 -28 -1 c-52 -2 -87 3
-150 23 -35 11 -65 18 -67 16 -2 -2 12 -35 30 -75 21 -45 52 -90 84 -122 l51
-51 -17 -35 c-11 -23 -24 -35 -37 -35 -78 -1 -117 -150 -66 -249 10 -20 31
-50 48 -67 16 -17 32 -48 37 -70 22 -118 117 -247 250 -337 66 -45 199 -107
229 -107 36 0 4 -18 -117 -64 -65 -25 -134 -54 -155 -65 -20 -10 -41 -20 -47
-21 -42 -8 -78 -78 -100 -195 -10 -53 -6 -195 5 -233 7 -21 32 -77 58 -127 25
-49 51 -101 58 -115 6 -14 15 -59 18 -100 3 -41 8 -86 11 -100 2 -14 6 -54 9
-90 3 -36 8 -85 11 -110 6 -50 11 -97 20 -181 4 -31 3 -59 -2 -62 -4 -2 -27
-8 -50 -12 l-42 -7 -3 235 -3 234 -28 37 c-16 20 -44 44 -62 53 -24 11 -31 20
-27 35 2 10 -4 28 -14 39 -17 18 -18 41 -19 227 -1 114 -5 218 -9 232 -24 71
-91 119 -170 121 -70 3 -70 4 -62 116 4 54 8 104 8 111 2 19 13 14 46 -19 19
-20 37 -29 46 -26 26 10 19 25 -37 82 l-53 55 17 27 c17 25 17 29 2 54 -22 36
-58 54 -101 50 -7 0 -26 -15 -44 -31 l-31 -30 16 -36 c14 -28 15 -40 6 -57
-16 -30 -60 -77 -73 -77 -6 0 -3 7 7 15 41 31 -15 175 -78 201 -66 26 -147
-40 -161 -131 -3 -22 -16 -50 -29 -63 -34 -33 -15 -81 33 -85 18 -1 18 -3 6
-34 -16 -38 -19 -103 -4 -103 23 0 8 -16 -17 -18 -54 -4 -116 -45 -140 -93
-22 -43 -24 -55 -23 -254 0 -178 -3 -211 -16 -227 -9 -9 -17 -28 -17 -40 0
-16 -12 -31 -41 -49 -74 -46 -80 -70 -81 -325 -1 -189 -4 -224 -18 -244 -9
-14 -17 -32 -17 -41 0 -9 -11 -20 -24 -23 -33 -8 -83 -52 -104 -90 -14 -27
-17 -70 -18 -327 -1 -258 -3 -299 -18 -320 -9 -13 -16 -31 -16 -41 0 -13 -8
-17 -37 -16 -21 0 -43 0 -49 -1 -8 -1 -11 -30 -10 -88 l1 -88 358 0 c350 0
357 0 358 -20 5 -115 3 -994 -3 -1005 -5 -13 -27 -16 -127 -15 l-121 1 0 -83
0 -83 419 0 419 0 4 48 c1 26 1 63 -2 82 l-5 35 -120 0 -120 0 0 520 0 520
298 0 c186 0 301 -4 305 -10 3 -5 7 -32 8 -60 2 -79 20 -460 29 -620 2 -33 5
-103 6 -155 l3 -95 -52 -7 c-138 -20 -219 -105 -170 -178 41 -60 85 -75 236
-78 127 -3 136 -2 187 22 88 44 86 36 100 376 3 79 8 146 10 148 2 3 11 -3 20
-11 9 -9 29 -24 45 -34 22 -12 30 -24 29 -43 -1 -14 1 -99 5 -190 8 -160 9
-166 35 -200 43 -54 94 -69 241 -69 101 0 133 3 165 18 82 38 110 88 82 146
-22 47 -137 100 -209 97 -13 -1 -18 7 -18 23 l0 25 58 -26 c76 -34 152 -61
237 -86 83 -24 91 -29 74 -56 -18 -29 4 -74 54 -109 39 -27 46 -28 176 -31
126 -3 139 -1 181 20 25 13 54 37 65 53 19 28 24 30 78 30 50 -1 61 -4 70 -22
34 -61 98 -83 246 -83 127 0 174 14 220 63 20 22 23 33 18 70 l-6 44 82 23
c204 59 437 174 622 308 l80 57 -1 59 c-2 61 -10 160 -20 224 -59 408 -156
708 -328 1017 -6 11 -25 40 -41 65 -23 36 -30 58 -32 107 -1 34 2 65 7 68 16
10 11 48 -10 83 -24 39 -69 81 -87 82 -7 0 -13 10 -14 23 0 12 -2 31 -4 42
-11 55 -46 208 -61 267 -10 38 -15 69 -13 71 2 1 56 25 119 52 130 55 263 128
372 203 116 81 118 84 113 145 -3 28 -7 86 -10 127 -3 41 -7 82 -10 90 -2 8
-7 35 -10 60 -3 25 -8 56 -10 70 -3 14 -7 41 -10 60 -52 319 -247 795 -411
1000 -142 177 -228 260 -361 347 -100 65 -168 96 -361 164 -91 32 -195 28
-312 -10 -30 -10 -80 -26 -110 -36 -78 -25 -201 -87 -275 -139 l-63 -44 -124
121 c-99 97 -141 131 -207 166 -112 59 -168 70 -346 71 -142 0 -157 -2 -280
-36 -71 -20 -152 -38 -178 -41 -62 -7 -130 11 -188 48 -25 16 -55 29 -67 29
-18 0 -20 -4 -16 -37z m-362 -1428 c3 -17 7 -60 11 -97 6 -77 2 -82 -65 -84
-42 -2 -44 -1 -24 13 23 15 22 23 -13 137 -4 12 -2 17 5 12 6 -3 17 2 24 11
12 16 50 43 55 39 1 -1 4 -15 7 -31z m-254 21 c0 -3 -4 -8 -10 -11 -5 -3 -10
-1 -10 4 0 6 5 11 10 11 6 0 10 -2 10 -4z m2215 -1087 c28 -5 63 -12 80 -15
34 -6 45 -19 45 -54 0 -22 -10 -29 -69 -53 -103 -43 -238 -136 -346 -241 l-96
-92 6 45 c3 25 8 64 10 86 3 22 7 58 9 80 2 22 7 71 11 108 l7 68 76 57 75 58
71 -19 c39 -10 94 -22 121 -28z m980 -71 c49 -122 86 -228 77 -228 -4 0 -24
16 -46 34 -31 28 -186 126 -216 138 -4 2 -10 29 -13 60 l-7 57 58 11 c31 6 62
13 67 15 34 12 43 2 80 -87z m-2248 -1000 c-3 -8 -6 -5 -6 6 -1 11 2 17 5 13
3 -3 4 -12 1 -19z m0 -55 c-3 -10 -5 -4 -5 12 0 17 2 24 5 18 2 -7 2 -21 0
-30z m419 -119 c4 -65 7 -130 7 -144 0 -25 -33 -202 -39 -209 -4 -4 6 286 11
314 2 11 4 53 4 94 1 41 3 72 6 70 2 -3 8 -59 11 -125z"/>
</g>
</svg>
